<?xml version="1.0" encoding="utf-8"?>
<!-- Generator: Circuit Diagram, cdlibrary.dll 4.0.0.0 -->
<!DOCTYPE svg PUBLIC "-//W3C//DTD SVG 1.1//EN" "http://www.w3.org/Graphics/SVG/1.1/DTD/svg11.dtd">
<svg version="1.1" width="600" height="280" xmlns="http://www.w3.org/2000/svg">
	<line x1="180" y1="140" x2="200" y2="140" style="stroke:#ADBAC7;stroke-linecap:square;stroke-width:2" />
	<line x1="200" y1="110" x2="200" y2="140" style="stroke:#ADBAC7;stroke-linecap:square;stroke-width:2" />
	<line x1="200" y1="110" x2="250" y2="110" style="stroke:#ADBAC7;stroke-linecap:square;stroke-width:2" />
	<line x1="180" y1="100" x2="250" y2="100" style="stroke:#ADBAC7;stroke-linecap:square;stroke-width:2" />
	<line x1="60" y1="140" x2="80" y2="140" style="stroke:#ADBAC7;stroke-linecap:square;stroke-width:2" />
	<line x1="60" y1="100" x2="80" y2="100" style="stroke:#ADBAC7;stroke-linecap:square;stroke-width:2" />
	<line x1="60" y1="140" x2="60" y2="152" style="stroke:#ADBAC7;stroke-linecap:square;stroke-width:2" />
	<path d="M 52,152 L 68,152 L 60,160 L 52,152" style="fill-opacity:0;fill:#ADBAC7;stroke:#ADBAC7;stroke-linecap:square;stroke-width:2" />
	<line x1="60" y1="100" x2="60" y2="112" style="stroke:#ADBAC7;stroke-linecap:square;stroke-width:2" />
	<path d="M 52,112 L 68,112 L 60,120 L 52,112" style="fill-opacity:0;fill:#ADBAC7;stroke:#ADBAC7;stroke-linecap:square;stroke-width:2" />
	<line x1="120" y1="100" x2="130" y2="100" style="stroke:#ADBAC7;stroke-linecap:square;stroke-width:2" />
	<line x1="170" y1="100" x2="180" y2="100" style="stroke:#ADBAC7;stroke-linecap:square;stroke-width:2" />
	<rect x="130" y="92" width="40" height="16" style="fill-opacity:0;fill:#ADBAC7;stroke:#ADBAC7;stroke-width:2" />
	<text x="150" y="86" style="fill:#ADBAC7;font-family:Arial;font-size:11px;text-anchor:middle" dominant-baseline="baseline" transform="rotate(0, 150, 86)">220 Ω</text>
	<line x1="120" y1="140" x2="130" y2="140" style="stroke:#ADBAC7;stroke-linecap:square;stroke-width:2" />
	<line x1="170" y1="140" x2="180" y2="140" style="stroke:#ADBAC7;stroke-linecap:square;stroke-width:2" />
	<rect x="130" y="132" width="40" height="16" style="fill-opacity:0;fill:#ADBAC7;stroke:#ADBAC7;stroke-width:2" />
	<text x="150" y="126" style="fill:#ADBAC7;font-family:Arial;font-size:11px;text-anchor:middle" dominant-baseline="baseline" transform="rotate(0, 150, 126)">220 Ω</text>
	<line x1="230" y1="160" x2="230" y2="210" style="stroke:#ADBAC7;stroke-linecap:square;stroke-width:2" />
	<line x1="230" y1="160" x2="250" y2="160" style="stroke:#ADBAC7;stroke-linecap:square;stroke-width:2" />
	<line x1="220" y1="150" x2="250" y2="150" style="stroke:#ADBAC7;stroke-linecap:square;stroke-width:2" />
	<line x1="220" y1="150" x2="220" y2="200" style="stroke:#ADBAC7;stroke-linecap:square;stroke-width:2" />
	<line x1="120" y1="140" x2="80" y2="140" style="stroke:#ADBAC7;stroke-linecap:square;stroke-width:2" />
	<path d="M 93,140 M 93,132 L 93,148 M 93,140 L 108,148 L 108,132 L 93,140" style="fill-opacity:0;fill:#ADBAC7;stroke:#ADBAC7;stroke-linecap:square;stroke-width:2" />
	<path d="M 95,140 M 97,129 L 89,121 M 88,120 L 92,122 L 90,124 L 88,120 L 92,122" style="fill-opacity:0;fill:#ADBAC7;stroke:#ADBAC7;stroke-linecap:square;stroke-width:2" />
	<path d="M 95,140 M 91,136 L 83,128 M 82,127 L 86,129 L 84,131 L 82,127 L 86,129" style="fill-opacity:0;fill:#ADBAC7;stroke:#ADBAC7;stroke-linecap:square;stroke-width:2" />
	<line x1="120" y1="100" x2="80" y2="100" style="stroke:#ADBAC7;stroke-linecap:square;stroke-width:2" />
	<path d="M 93,100 M 93,92 L 93,108 M 93,100 L 108,108 L 108,92 L 93,100" style="fill-opacity:0;fill:#ADBAC7;stroke:#ADBAC7;stroke-linecap:square;stroke-width:2" />
	<path d="M 95,100 M 97,89 L 89,81 M 88,80 L 92,82 L 90,84 L 88,80 L 92,82" style="fill-opacity:0;fill:#ADBAC7;stroke:#ADBAC7;stroke-linecap:square;stroke-width:2" />
	<path d="M 95,100 M 91,96 L 83,88 M 82,87 L 86,89 L 84,91 L 82,87 L 86,89" style="fill-opacity:0;fill:#ADBAC7;stroke:#ADBAC7;stroke-linecap:square;stroke-width:2" />
	<line x1="210" y1="60" x2="250" y2="60" style="stroke:#ADBAC7;stroke-linecap:square;stroke-width:2" />
	<line x1="210" y1="50" x2="250" y2="50" style="stroke:#ADBAC7;stroke-linecap:square;stroke-width:2" />
	<line x1="210" y1="210" x2="230" y2="210" style="stroke:#ADBAC7;stroke-linecap:square;stroke-width:2" />
	<line x1="210" y1="200" x2="220" y2="200" style="stroke:#ADBAC7;stroke-linecap:square;stroke-width:2" />
	<line x1="60" y1="210" x2="90" y2="210" style="stroke:#ADBAC7;stroke-linecap:square;stroke-width:2" />
	<line x1="60" y1="200" x2="90" y2="200" style="stroke:#ADBAC7;stroke-linecap:square;stroke-width:2" />
	<text x="150" y="180" style="fill:#ADBAC7;font-family:Arial;font-size:11px;text-anchor:middle" dominant-baseline="middle" transform="rotate(0, 150, 180)">USB A Breakout Board</text>
	<rect x="100" y="190" width="100" height="30" style="fill-opacity:0;fill:#ADBAC7;stroke:#ADBAC7;stroke-width:2" />
	<line x1="90" y1="200" x2="100" y2="200" style="stroke:#ADBAC7;stroke-linecap:square;stroke-width:2" />
	<text x="104" y="200" style="fill:#ADBAC7;font-family:Arial;font-size:11px;text-anchor:start" dominant-baseline="middle" transform="rotate(0, 104, 200)">VBUS</text>
	<line x1="200" y1="200" x2="210" y2="200" style="stroke:#ADBAC7;stroke-linecap:square;stroke-width:2" />
	<text x="196" y="200" style="fill:#ADBAC7;font-family:Arial;font-size:11px;text-anchor:end" dominant-baseline="middle" transform="rotate(0, 196, 200)">DATA+</text>
	<line x1="90" y1="210" x2="100" y2="210" style="stroke:#ADBAC7;stroke-linecap:square;stroke-width:2" />
	<text x="104" y="210" style="fill:#ADBAC7;font-family:Arial;font-size:11px;text-anchor:start" dominant-baseline="middle" transform="rotate(0, 104, 210)">GND</text>
	<line x1="200" y1="210" x2="210" y2="210" style="stroke:#ADBAC7;stroke-linecap:square;stroke-width:2" />
	<text x="196" y="210" style="fill:#ADBAC7;font-family:Arial;font-size:11px;text-anchor:end" dominant-baseline="middle" transform="rotate(0, 196, 210)">DATA-</text>
	<line x1="60" y1="210" x2="60" y2="222" style="stroke:#ADBAC7;stroke-linecap:square;stroke-width:2" />
	<path d="M 52,222 L 68,222 L 60,230 L 52,222" style="fill-opacity:0;fill:#ADBAC7;stroke:#ADBAC7;stroke-linecap:square;stroke-width:2" />
	<path d="M 55,190 L 65,190 L 60,180 L 55,190" style="fill-opacity:0;fill:#ADBAC7;stroke:#ADBAC7;stroke-linecap:square;stroke-width:2" />
	<text x="54" y="184" style="fill:#ADBAC7;font-family:Arial;font-size:12px;text-anchor:end" dominant-baseline="middle" transform="rotate(0, 54, 184)">+5V</text>
	<line x1="60" y1="190" x2="60" y2="200" style="stroke:#ADBAC7;stroke-linecap:square;stroke-width:2" />
	<line x1="60" y1="60" x2="90" y2="60" style="stroke:#ADBAC7;stroke-linecap:square;stroke-width:2" />
	<line x1="60" y1="50" x2="90" y2="50" style="stroke:#ADBAC7;stroke-linecap:square;stroke-width:2" />
	<text x="150" y="30" style="fill:#ADBAC7;font-family:Arial;font-size:11px;text-anchor:middle" dominant-baseline="middle" transform="rotate(0, 150, 30)">USB A Breakout Board</text>
	<rect x="100" y="40" width="100" height="30" style="fill-opacity:0;fill:#ADBAC7;stroke:#ADBAC7;stroke-width:2" />
	<line x1="90" y1="50" x2="100" y2="50" style="stroke:#ADBAC7;stroke-linecap:square;stroke-width:2" />
	<text x="104" y="50" style="fill:#ADBAC7;font-family:Arial;font-size:11px;text-anchor:start" dominant-baseline="middle" transform="rotate(0, 104, 50)">VBUS</text>
	<line x1="200" y1="50" x2="210" y2="50" style="stroke:#ADBAC7;stroke-linecap:square;stroke-width:2" />
	<text x="196" y="50" style="fill:#ADBAC7;font-family:Arial;font-size:11px;text-anchor:end" dominant-baseline="middle" transform="rotate(0, 196, 50)">DATA+</text>
	<line x1="90" y1="60" x2="100" y2="60" style="stroke:#ADBAC7;stroke-linecap:square;stroke-width:2" />
	<text x="104" y="60" style="fill:#ADBAC7;font-family:Arial;font-size:11px;text-anchor:start" dominant-baseline="middle" transform="rotate(0, 104, 60)">GND</text>
	<line x1="200" y1="60" x2="210" y2="60" style="stroke:#ADBAC7;stroke-linecap:square;stroke-width:2" />
	<text x="196" y="60" style="fill:#ADBAC7;font-family:Arial;font-size:11px;text-anchor:end" dominant-baseline="middle" transform="rotate(0, 196, 60)">DATA-</text>
	<line x1="410" y1="140" x2="450" y2="140" style="stroke:#ADBAC7;stroke-linecap:square;stroke-width:2" />
	<line x1="450" y1="120" x2="450" y2="160" style="stroke:#ADBAC7;stroke-linecap:square;stroke-width:2" />
	<line x1="450" y1="160" x2="460" y2="160" style="stroke:#ADBAC7;stroke-linecap:square;stroke-width:2" />
	<line x1="450" y1="120" x2="460" y2="120" style="stroke:#ADBAC7;stroke-linecap:square;stroke-width:2" />
	<line x1="410" y1="140" x2="410" y2="152" style="stroke:#ADBAC7;stroke-linecap:square;stroke-width:2" />
	<path d="M 402,152 L 418,152 L 410,160 L 402,152" style="fill-opacity:0;fill:#ADBAC7;stroke:#ADBAC7;stroke-linecap:square;stroke-width:2" />
	<line x1="520" y1="140" x2="560" y2="140" style="stroke:#ADBAC7;stroke-linecap:square;stroke-width:2" />
	<line x1="520" y1="120" x2="520" y2="140" style="stroke:#ADBAC7;stroke-linecap:square;stroke-width:2" />
	<line x1="520" y1="140" x2="520" y2="160" style="stroke:#ADBAC7;stroke-linecap:square;stroke-width:2" />
	<line x1="510" y1="160" x2="520" y2="160" style="stroke:#ADBAC7;stroke-linecap:square;stroke-width:2" />
	<line x1="510" y1="120" x2="520" y2="120" style="stroke:#ADBAC7;stroke-linecap:square;stroke-width:2" />
	<path d="M 555,130 L 565,130 L 560,120 L 555,130" style="fill-opacity:0;fill:#ADBAC7;stroke:#ADBAC7;stroke-linecap:square;stroke-width:2" />
	<text x="554" y="124" style="fill:#ADBAC7;font-family:Arial;font-size:12px;text-anchor:end" dominant-baseline="middle" transform="rotate(0, 554, 124)">+5V</text>
	<line x1="560" y1="130" x2="560" y2="140" style="stroke:#ADBAC7;stroke-linecap:square;stroke-width:2" />
	<line x1="460" y1="120" x2="465" y2="120" style="stroke:#ADBAC7;stroke-linecap:square;stroke-width:2" />
	<line x1="505" y1="120" x2="510" y2="120" style="stroke:#ADBAC7;stroke-linecap:square;stroke-width:2" />
	<rect x="465" y="112" width="40" height="16" style="fill-opacity:0;fill:#ADBAC7;stroke:#ADBAC7;stroke-width:2" />
	<text x="485" y="106" style="fill:#ADBAC7;font-family:Arial;font-size:11px;text-anchor:middle" dominant-baseline="baseline" transform="rotate(0, 485, 106)">220 Ω</text>
	<line x1="460" y1="160" x2="465" y2="160" style="stroke:#ADBAC7;stroke-linecap:square;stroke-width:2" />
	<line x1="505" y1="160" x2="510" y2="160" style="stroke:#ADBAC7;stroke-linecap:square;stroke-width:2" />
	<rect x="465" y="152" width="40" height="16" style="fill-opacity:0;fill:#ADBAC7;stroke:#ADBAC7;stroke-width:2" />
	<text x="485" y="146" style="fill:#ADBAC7;font-family:Arial;font-size:11px;text-anchor:middle" dominant-baseline="baseline" transform="rotate(0, 485, 146)">220 Ω</text>
	<line x1="60" y1="60" x2="60" y2="72" style="stroke:#ADBAC7;stroke-linecap:square;stroke-width:2" />
	<path d="M 52,72 L 68,72 L 60,80 L 52,72" style="fill-opacity:0;fill:#ADBAC7;stroke:#ADBAC7;stroke-linecap:square;stroke-width:2" />
	<path d="M 55,40 L 65,40 L 60,30 L 55,40" style="fill-opacity:0;fill:#ADBAC7;stroke:#ADBAC7;stroke-linecap:square;stroke-width:2" />
	<text x="54" y="34" style="fill:#ADBAC7;font-family:Arial;font-size:12px;text-anchor:end" dominant-baseline="middle" transform="rotate(0, 54, 34)">+5V</text>
	<line x1="60" y1="40" x2="60" y2="50" style="stroke:#ADBAC7;stroke-linecap:square;stroke-width:2" />
	<line x1="370" y1="70" x2="410" y2="70" style="stroke:#ADBAC7;stroke-linecap:square;stroke-width:2" />
	<line x1="410" y1="70" x2="410" y2="82" style="stroke:#ADBAC7;stroke-linecap:square;stroke-width:2" />
	<path d="M 402,82 L 418,82 L 410,90 L 402,82" style="fill-opacity:0;fill:#ADBAC7;stroke:#ADBAC7;stroke-linecap:square;stroke-width:2" />
	<line x1="370" y1="60" x2="410" y2="60" style="stroke:#ADBAC7;stroke-linecap:square;stroke-width:2" />
	<path d="M 405,50 L 415,50 L 410,40 L 405,50" style="fill-opacity:0;fill:#ADBAC7;stroke:#ADBAC7;stroke-linecap:square;stroke-width:2" />
	<text x="404" y="44" style="fill:#ADBAC7;font-family:Arial;font-size:12px;text-anchor:end" dominant-baseline="middle" transform="rotate(0, 404, 44)">+5V</text>
	<line x1="410" y1="50" x2="410" y2="60" style="stroke:#ADBAC7;stroke-linecap:square;stroke-width:2" />
	<text x="310" y="30" style="fill:#ADBAC7;font-family:Arial;font-size:11px;text-anchor:middle" dominant-baseline="middle" transform="rotate(0, 310, 30)">Raspberry Pi Pico</text>
	<rect x="260" y="40" width="100" height="210" style="fill-opacity:0;fill:#ADBAC7;stroke:#ADBAC7;stroke-width:2" />
	<line x1="250" y1="50" x2="260" y2="50" style="stroke:#ADBAC7;stroke-linecap:square;stroke-width:2" />
	<text x="264" y="50" style="fill:#ADBAC7;font-family:Arial;font-size:11px;text-anchor:start" dominant-baseline="middle" transform="rotate(0, 264, 50)">GP0</text>
	<line x1="360" y1="50" x2="370" y2="50" style="stroke:#ADBAC7;stroke-linecap:square;stroke-width:2" />
	<text x="356" y="50" style="fill:#ADBAC7;font-family:Arial;font-size:11px;text-anchor:end" dominant-baseline="middle" transform="rotate(0, 356, 50)">VBUS</text>
	<line x1="250" y1="60" x2="260" y2="60" style="stroke:#ADBAC7;stroke-linecap:square;stroke-width:2" />
	<text x="264" y="60" style="fill:#ADBAC7;font-family:Arial;font-size:11px;text-anchor:start" dominant-baseline="middle" transform="rotate(0, 264, 60)">GP1</text>
	<line x1="360" y1="60" x2="370" y2="60" style="stroke:#ADBAC7;stroke-linecap:square;stroke-width:2" />
	<text x="356" y="60" style="fill:#ADBAC7;font-family:Arial;font-size:11px;text-anchor:end" dominant-baseline="middle" transform="rotate(0, 356, 60)">VSYS</text>
	<line x1="250" y1="70" x2="260" y2="70" style="stroke:#ADBAC7;stroke-linecap:square;stroke-width:2" />
	<text x="264" y="70" style="fill:#ADBAC7;font-family:Arial;font-size:11px;text-anchor:start" dominant-baseline="middle" transform="rotate(0, 264, 70)">GND</text>
	<line x1="360" y1="70" x2="370" y2="70" style="stroke:#ADBAC7;stroke-linecap:square;stroke-width:2" />
	<text x="356" y="70" style="fill:#ADBAC7;font-family:Arial;font-size:11px;text-anchor:end" dominant-baseline="middle" transform="rotate(0, 356, 70)">GND</text>
	<line x1="250" y1="80" x2="260" y2="80" style="stroke:#ADBAC7;stroke-linecap:square;stroke-width:2" />
	<text x="264" y="80" style="fill:#ADBAC7;font-family:Arial;font-size:11px;text-anchor:start" dominant-baseline="middle" transform="rotate(0, 264, 80)">GP2</text>
	<line x1="360" y1="80" x2="370" y2="80" style="stroke:#ADBAC7;stroke-linecap:square;stroke-width:2" />
	<text x="356" y="80" style="fill:#ADBAC7;font-family:Arial;font-size:11px;text-anchor:end" dominant-baseline="middle" transform="rotate(0, 356, 80)">3V3_EN</text>
	<line x1="250" y1="90" x2="260" y2="90" style="stroke:#ADBAC7;stroke-linecap:square;stroke-width:2" />
	<text x="264" y="90" style="fill:#ADBAC7;font-family:Arial;font-size:11px;text-anchor:start" dominant-baseline="middle" transform="rotate(0, 264, 90)">GP3</text>
	<line x1="360" y1="90" x2="370" y2="90" style="stroke:#ADBAC7;stroke-linecap:square;stroke-width:2" />
	<text x="356" y="90" style="fill:#ADBAC7;font-family:Arial;font-size:11px;text-anchor:end" dominant-baseline="middle" transform="rotate(0, 356, 90)">3V3_OUT</text>
	<line x1="250" y1="100" x2="260" y2="100" style="stroke:#ADBAC7;stroke-linecap:square;stroke-width:2" />
	<text x="264" y="100" style="fill:#ADBAC7;font-family:Arial;font-size:11px;text-anchor:start" dominant-baseline="middle" transform="rotate(0, 264, 100)">GP4</text>
	<line x1="360" y1="100" x2="370" y2="100" style="stroke:#ADBAC7;stroke-linecap:square;stroke-width:2" />
	<text x="356" y="100" style="fill:#ADBAC7;font-family:Arial;font-size:11px;text-anchor:end" dominant-baseline="middle" transform="rotate(0, 356, 100)">ADC_VREF</text>
	<line x1="250" y1="110" x2="260" y2="110" style="stroke:#ADBAC7;stroke-linecap:square;stroke-width:2" />
	<text x="264" y="110" style="fill:#ADBAC7;font-family:Arial;font-size:11px;text-anchor:start" dominant-baseline="middle" transform="rotate(0, 264, 110)">GP5</text>
	<line x1="360" y1="110" x2="370" y2="110" style="stroke:#ADBAC7;stroke-linecap:square;stroke-width:2" />
	<text x="356" y="110" style="fill:#ADBAC7;font-family:Arial;font-size:11px;text-anchor:end" dominant-baseline="middle" transform="rotate(0, 356, 110)">GP28</text>
	<line x1="250" y1="120" x2="260" y2="120" style="stroke:#ADBAC7;stroke-linecap:square;stroke-width:2" />
	<text x="264" y="120" style="fill:#ADBAC7;font-family:Arial;font-size:11px;text-anchor:start" dominant-baseline="middle" transform="rotate(0, 264, 120)">GND</text>
	<line x1="360" y1="120" x2="370" y2="120" style="stroke:#ADBAC7;stroke-linecap:square;stroke-width:2" />
	<text x="356" y="120" style="fill:#ADBAC7;font-family:Arial;font-size:11px;text-anchor:end" dominant-baseline="middle" transform="rotate(0, 356, 120)">GND</text>
	<line x1="250" y1="130" x2="260" y2="130" style="stroke:#ADBAC7;stroke-linecap:square;stroke-width:2" />
	<text x="264" y="130" style="fill:#ADBAC7;font-family:Arial;font-size:11px;text-anchor:start" dominant-baseline="middle" transform="rotate(0, 264, 130)">GP6</text>
	<line x1="360" y1="130" x2="370" y2="130" style="stroke:#ADBAC7;stroke-linecap:square;stroke-width:2" />
	<text x="356" y="130" style="fill:#ADBAC7;font-family:Arial;font-size:11px;text-anchor:end" dominant-baseline="middle" transform="rotate(0, 356, 130)">GP27</text>
	<line x1="250" y1="140" x2="260" y2="140" style="stroke:#ADBAC7;stroke-linecap:square;stroke-width:2" />
	<text x="264" y="140" style="fill:#ADBAC7;font-family:Arial;font-size:11px;text-anchor:start" dominant-baseline="middle" transform="rotate(0, 264, 140)">GP7</text>
	<line x1="360" y1="140" x2="370" y2="140" style="stroke:#ADBAC7;stroke-linecap:square;stroke-width:2" />
	<text x="356" y="140" style="fill:#ADBAC7;font-family:Arial;font-size:11px;text-anchor:end" dominant-baseline="middle" transform="rotate(0, 356, 140)">GP26</text>
	<line x1="250" y1="150" x2="260" y2="150" style="stroke:#ADBAC7;stroke-linecap:square;stroke-width:2" />
	<text x="264" y="150" style="fill:#ADBAC7;font-family:Arial;font-size:11px;text-anchor:start" dominant-baseline="middle" transform="rotate(0, 264, 150)">GP8</text>
	<line x1="360" y1="150" x2="370" y2="150" style="stroke:#ADBAC7;stroke-linecap:square;stroke-width:2" />
	<text x="356" y="150" style="fill:#ADBAC7;font-family:Arial;font-size:11px;text-anchor:end" dominant-baseline="middle" transform="rotate(0, 356, 150)">RUN</text>
	<line x1="250" y1="160" x2="260" y2="160" style="stroke:#ADBAC7;stroke-linecap:square;stroke-width:2" />
	<text x="264" y="160" style="fill:#ADBAC7;font-family:Arial;font-size:11px;text-anchor:start" dominant-baseline="middle" transform="rotate(0, 264, 160)">GP9</text>
	<line x1="360" y1="160" x2="370" y2="160" style="stroke:#ADBAC7;stroke-linecap:square;stroke-width:2" />
	<text x="356" y="160" style="fill:#ADBAC7;font-family:Arial;font-size:11px;text-anchor:end" dominant-baseline="middle" transform="rotate(0, 356, 160)">GP22</text>
	<line x1="250" y1="170" x2="260" y2="170" style="stroke:#ADBAC7;stroke-linecap:square;stroke-width:2" />
	<text x="264" y="170" style="fill:#ADBAC7;font-family:Arial;font-size:11px;text-anchor:start" dominant-baseline="middle" transform="rotate(0, 264, 170)">GND</text>
	<line x1="360" y1="170" x2="370" y2="170" style="stroke:#ADBAC7;stroke-linecap:square;stroke-width:2" />
	<text x="356" y="170" style="fill:#ADBAC7;font-family:Arial;font-size:11px;text-anchor:end" dominant-baseline="middle" transform="rotate(0, 356, 170)">GND</text>
	<line x1="250" y1="180" x2="260" y2="180" style="stroke:#ADBAC7;stroke-linecap:square;stroke-width:2" />
	<text x="264" y="180" style="fill:#ADBAC7;font-family:Arial;font-size:11px;text-anchor:start" dominant-baseline="middle" transform="rotate(0, 264, 180)">GP10</text>
	<line x1="360" y1="180" x2="370" y2="180" style="stroke:#ADBAC7;stroke-linecap:square;stroke-width:2" />
	<text x="356" y="180" style="fill:#ADBAC7;font-family:Arial;font-size:11px;text-anchor:end" dominant-baseline="middle" transform="rotate(0, 356, 180)">GP21</text>
	<line x1="250" y1="190" x2="260" y2="190" style="stroke:#ADBAC7;stroke-linecap:square;stroke-width:2" />
	<text x="264" y="190" style="fill:#ADBAC7;font-family:Arial;font-size:11px;text-anchor:start" dominant-baseline="middle" transform="rotate(0, 264, 190)">GP11</text>
	<line x1="360" y1="190" x2="370" y2="190" style="stroke:#ADBAC7;stroke-linecap:square;stroke-width:2" />
	<text x="356" y="190" style="fill:#ADBAC7;font-family:Arial;font-size:11px;text-anchor:end" dominant-baseline="middle" transform="rotate(0, 356, 190)">GP20</text>
	<line x1="250" y1="200" x2="260" y2="200" style="stroke:#ADBAC7;stroke-linecap:square;stroke-width:2" />
	<text x="264" y="200" style="fill:#ADBAC7;font-family:Arial;font-size:11px;text-anchor:start" dominant-baseline="middle" transform="rotate(0, 264, 200)">GP12</text>
	<line x1="360" y1="200" x2="370" y2="200" style="stroke:#ADBAC7;stroke-linecap:square;stroke-width:2" />
	<text x="356" y="200" style="fill:#ADBAC7;font-family:Arial;font-size:11px;text-anchor:end" dominant-baseline="middle" transform="rotate(0, 356, 200)">GP19</text>
	<line x1="250" y1="210" x2="260" y2="210" style="stroke:#ADBAC7;stroke-linecap:square;stroke-width:2" />
	<text x="264" y="210" style="fill:#ADBAC7;font-family:Arial;font-size:11px;text-anchor:start" dominant-baseline="middle" transform="rotate(0, 264, 210)">GP13</text>
	<line x1="360" y1="210" x2="370" y2="210" style="stroke:#ADBAC7;stroke-linecap:square;stroke-width:2" />
	<text x="356" y="210" style="fill:#ADBAC7;font-family:Arial;font-size:11px;text-anchor:end" dominant-baseline="middle" transform="rotate(0, 356, 210)">GP18</text>
	<line x1="250" y1="220" x2="260" y2="220" style="stroke:#ADBAC7;stroke-linecap:square;stroke-width:2" />
	<text x="264" y="220" style="fill:#ADBAC7;font-family:Arial;font-size:11px;text-anchor:start" dominant-baseline="middle" transform="rotate(0, 264, 220)">GND</text>
	<line x1="360" y1="220" x2="370" y2="220" style="stroke:#ADBAC7;stroke-linecap:square;stroke-width:2" />
	<text x="356" y="220" style="fill:#ADBAC7;font-family:Arial;font-size:11px;text-anchor:end" dominant-baseline="middle" transform="rotate(0, 356, 220)">GND</text>
	<line x1="250" y1="230" x2="260" y2="230" style="stroke:#ADBAC7;stroke-linecap:square;stroke-width:2" />
	<text x="264" y="230" style="fill:#ADBAC7;font-family:Arial;font-size:11px;text-anchor:start" dominant-baseline="middle" transform="rotate(0, 264, 230)">GP14</text>
	<line x1="360" y1="230" x2="370" y2="230" style="stroke:#ADBAC7;stroke-linecap:square;stroke-width:2" />
	<text x="356" y="230" style="fill:#ADBAC7;font-family:Arial;font-size:11px;text-anchor:end" dominant-baseline="middle" transform="rotate(0, 356, 230)">GP17</text>
	<line x1="250" y1="240" x2="260" y2="240" style="stroke:#ADBAC7;stroke-linecap:square;stroke-width:2" />
	<text x="264" y="240" style="fill:#ADBAC7;font-family:Arial;font-size:11px;text-anchor:start" dominant-baseline="middle" transform="rotate(0, 264, 240)">GP15</text>
	<line x1="360" y1="240" x2="370" y2="240" style="stroke:#ADBAC7;stroke-linecap:square;stroke-width:2" />
	<text x="356" y="240" style="fill:#ADBAC7;font-family:Arial;font-size:11px;text-anchor:end" dominant-baseline="middle" transform="rotate(0, 356, 240)">GP16</text>
	<ellipse cx="450" cy="140" rx="2" ry="2" style="fill-opacity:1;fill:#ADBAC7;stroke:#ADBAC7;stroke-width:2" />
	<ellipse cx="520" cy="140" rx="2" ry="2" style="fill-opacity:1;fill:#ADBAC7;stroke:#ADBAC7;stroke-width:2" />
</svg>
